<?xml version="1.0" standalone="no"?>
<!DOCTYPE svg PUBLIC "-//W3C//DTD SVG 20010904//EN"
 "http://www.w3.org/TR/2001/REC-SVG-20010904/DTD/svg10.dtd">
<svg version="1.0" xmlns="http://www.w3.org/2000/svg"
 width="1280.000000pt" height="1280.000000pt" viewBox="0 0 1280.000000 1280.000000"
 preserveAspectRatio="xMidYMid meet">
<metadata>
Created by potrace 1.15, written by Peter Selinger 2001-2017
</metadata>
<g transform="translate(0.000000,1280.000000) scale(0.100000,-0.100000)"
fill="#465282" stroke="#465282">
<path d="M6465 12786 c-372 -73 -656 -366 -715 -736 -6 -42 -10 -568 -10
-1497 l0 -1433 -2512 -2 -2513 -3 -85 -28 c-330 -110 -559 -369 -615 -694 -13
-78 -15 -327 -13 -2033 l3 -1945 22 -75 c98 -336 352 -575 684 -645 61 -13
396 -15 2550 -15 l2479 0 0 -1432 c0 -930 4 -1456 10 -1498 54 -341 295 -612
637 -717 79 -24 104 -26 238 -26 134 0 159 2 238 26 137 42 248 103 348 191
25 23 851 880 1835 1906 983 1026 2183 2277 2666 2780 482 503 896 940 918
970 55 74 115 198 142 296 17 64 21 106 21 224 0 168 -18 251 -82 384 -53 110
-109 180 -312 391 -405 421 -3291 3431 -4172 4350 -527 550 -990 1028 -1029
1062 -88 76 -214 143 -333 178 -111 33 -291 42 -400 21z"/>
</g>
</svg>
